<?xml version="1.0" encoding="UTF-8"?>
<svg version="1.1" xmlns="http://www.w3.org/2000/svg" width="512" height="512">
<path d="M0 0 C1.94802876 -0.00807831 1.94802876 -0.00807831 3.93541163 -0.01631981 C7.49254504 -0.0306119 11.04944358 -0.02658143 14.60658896 -0.019153 C18.46153269 -0.01438278 22.31642837 -0.02696494 26.1713562 -0.03717041 C33.7052237 -0.05428925 41.23900753 -0.05521282 48.77288941 -0.04995751 C54.90224824 -0.04590141 61.0315825 -0.04737638 67.16094017 -0.05270576 C68.47394344 -0.0538284 68.47394344 -0.0538284 69.81347203 -0.05497371 C71.59223186 -0.05650533 73.37099169 -0.05804368 75.14975151 -0.05958868 C91.79776024 -0.07328885 108.44572188 -0.06789366 125.09372952 -0.05640347 C140.28993282 -0.04647501 155.48601429 -0.05940949 170.6821988 -0.08333766 C186.32440488 -0.10778061 201.96655435 -0.11732371 217.60877913 -0.11068493 C226.37516587 -0.10720406 235.141459 -0.10934946 243.90783119 -0.12693596 C251.37076278 -0.14172318 258.83353485 -0.14220891 266.29646353 -0.12486505 C270.09627256 -0.1164057 273.89579744 -0.11407961 277.69559097 -0.1295166 C309.51685102 -0.24939896 337.6055783 5.01734631 362.24479675 26.38768005 C363.05303894 27.05154724 363.86128113 27.71541443 364.6940155 28.3993988 C385.06021724 45.69628285 397.71492918 71.04747539 401.24479675 97.38768005 C401.51279866 101.81242983 401.52373479 106.22320911 401.51222229 110.65513611 C401.5167534 111.94969868 401.52128452 113.24426126 401.52595294 114.578053 C401.53809721 118.14224509 401.53793268 121.70634271 401.53556418 125.27055073 C401.53515382 129.12625867 401.54621617 132.98193721 401.55567932 136.83763123 C401.57224427 144.38172237 401.57778687 151.92578224 401.57890408 159.46989006 C401.57985691 165.60838986 401.5839789 171.74687942 401.59030533 177.88537598 C401.60790717 195.32147798 401.61714611 212.75755544 401.61564438 230.1936664 C401.61552451 231.60164652 401.61552451 231.60164652 401.61540222 233.03807068 C401.61532046 233.97788176 401.6152387 234.91769284 401.61515446 235.88598305 C401.61434236 251.10116041 401.6334637 266.31623858 401.66167895 281.53138727 C401.69047782 297.18589608 401.70421534 312.84035665 401.7024914 328.4948926 C401.70182981 337.27087883 401.70722018 346.04676115 401.7288475 354.82272339 C401.74715197 362.29779254 401.75133141 369.77271069 401.73782866 377.24779266 C401.73134472 381.05377945 401.73101347 384.85947735 401.74853516 388.66543579 C401.90649208 425.31560039 394.11786217 455.05833819 367.69352722 481.95310974 C342.25392751 507.14405816 310.8778221 513.03140234 276.3657217 512.91057873 C272.48832935 512.90142511 268.61100547 512.91554836 264.73362732 512.92649841 C257.16204242 512.94417962 249.59061714 512.94049044 242.01902628 512.92884785 C235.85922352 512.91977251 229.69946514 512.91860714 223.53965759 512.92294312 C222.65917783 512.92355605 221.77869806 512.92416898 220.87153709 512.92480049 C219.08222785 512.92607953 217.29291863 512.92737639 215.50360942 512.92869085 C198.76972861 512.94006618 182.0359358 512.92703096 165.30206943 512.90548939 C150.97889805 512.88762118 136.65585641 512.89072615 122.33268738 512.90916443 C105.65405967 512.93062519 88.97550887 512.93896783 72.29686928 512.92671537 C70.51455817 512.92544133 68.73224705 512.92418384 66.94993591 512.92294312 C66.07326322 512.92232601 65.19659054 512.92170891 64.29335201 512.92107311 C58.14903517 512.91763579 52.00476758 512.92341343 45.86045837 512.93286133 C38.36099382 512.94414078 30.86169648 512.94091744 23.3622508 512.91973835 C19.54419994 512.90930719 15.7264267 512.90496833 11.9083786 512.91833496 C-18.96534898 513.01728159 -46.58659358 508.06575926 -70.75520325 487.38768005 C-71.55313293 486.7225238 -72.35106262 486.05736755 -73.173172 485.37205505 C-93.8030121 467.58881304 -107.47578238 442.47554596 -110.75520325 415.38768005 C-111.4181811 405.79591147 -111.3120121 396.1713415 -111.27810192 386.56162536 C-111.26893857 382.70947233 -111.28307617 378.85738779 -111.29402161 375.00524902 C-111.31169222 367.48526989 -111.3080186 359.96545156 -111.29637104 352.44546645 C-111.28729213 346.32764024 -111.28613185 340.2098587 -111.29046631 334.09202766 C-111.29138571 332.77983733 -111.29138571 332.77983733 -111.29232368 331.44113811 C-111.29360274 329.66334441 -111.29489959 327.88555072 -111.29621404 326.10775704 C-111.30758609 309.48641831 -111.29455901 292.86516822 -111.27301258 276.24384404 C-111.25514153 262.01790066 -111.25825233 247.79208788 -111.27668762 233.56614685 C-111.2981488 216.99774819 -111.30649106 200.42942695 -111.29423857 183.86101633 C-111.29296453 182.09051646 -111.29170704 180.32001657 -111.29046631 178.54951668 C-111.28984921 177.6786672 -111.2892321 176.80781772 -111.2885963 175.91057886 C-111.28515934 169.80782834 -111.29093576 163.7051274 -111.30038452 157.60238457 C-111.31166431 150.15418075 -111.30843981 142.7061453 -111.28726155 135.25796049 C-111.27683131 131.46623049 -111.27248993 127.67478003 -111.28585815 123.88305283 C-111.38848304 92.08588651 -106.10837793 64.00711472 -84.75520325 39.38768005 C-84.09133606 38.57943787 -83.42746887 37.77119568 -82.7434845 36.9384613 C-70.85376486 22.93892081 -55.39868545 13.04579721 -38.31770325 6.57518005 C-37.22872742 6.1580072 -37.22872742 6.1580072 -36.11775208 5.73240662 C-24.31551855 1.49603817 -12.4750293 -0.0634659 0 0 Z " fill="#FCCF41" transform="translate(110.75520324707031,-0.3876800537109375)"/>
<path d="M0 0 C1.06992846 -0.00523668 2.13985693 -0.01047336 3.24220747 -0.01586872 C6.82780483 -0.03087168 10.41325951 -0.03157396 13.99888611 -0.03224182 C16.56978089 -0.03986323 19.1406734 -0.0482907 21.71156311 -0.0574646 C28.69739449 -0.08028583 35.68319543 -0.08823247 42.66905904 -0.09329104 C47.03550558 -0.09655215 51.40194336 -0.10307723 55.76838493 -0.11029243 C67.87009045 -0.12985652 79.97178782 -0.14626121 92.07351017 -0.14916897 C93.23451126 -0.14945032 93.23451126 -0.14945032 94.41896692 -0.14973736 C95.98790705 -0.1501036 97.55684719 -0.1504673 99.12578733 -0.15082847 C100.29394534 -0.15110269 100.29394534 -0.15110269 101.48570251 -0.15138245 C102.26543115 -0.151563 103.0451598 -0.15174354 103.84851658 -0.15192956 C116.47178892 -0.15546823 129.09489036 -0.18247214 141.71810348 -0.21988034 C154.69429772 -0.25802506 167.67040731 -0.27732691 180.64665884 -0.27762848 C187.92580057 -0.27821175 195.20473853 -0.28661899 202.48382759 -0.31562614 C209.33508851 -0.34280367 216.18594083 -0.34399252 223.03723526 -0.3279705 C225.5457656 -0.32615859 228.05431927 -0.33282324 230.56279945 -0.34878922 C246.67745428 -0.44506556 260.91123212 -0.36852433 273.38145447 11.27415466 C282.98442182 20.76519932 285.5725482 31.66680872 285.65826547 44.88984096 C285.65361967 46.47974131 285.65361967 46.47974131 285.64888 48.10176086 C285.65341112 49.25340009 285.65794223 50.40503931 285.66261065 51.5915767 C285.67521617 55.42965843 285.67363676 59.26759756 285.67198181 63.10569763 C285.67688583 65.86599762 285.68471939 68.62628777 285.69233704 71.38658142 C285.70889748 78.09359259 285.71444429 84.80056859 285.71556179 91.5075985 C285.71651442 96.96206765 285.72063538 102.41652526 285.72696304 107.87099075 C285.74456023 123.35631018 285.75380405 138.84160196 285.7523021 154.32693146 C285.75222218 155.1604575 285.75214227 155.99398354 285.75205994 156.85276794 C285.75197818 157.68731857 285.75189641 158.52186919 285.75181217 159.38170923 C285.75099922 172.90745442 285.77014325 186.43308827 285.79833667 199.95880125 C285.82709808 213.86737634 285.84087524 227.77589716 285.83914912 241.68450272 C285.83848645 249.48498183 285.84392499 257.28534413 285.86550522 265.08579636 C285.88375974 271.72629982 285.88802929 278.36663348 285.87448637 285.00715123 C285.8679786 288.39109536 285.86995406 291.77444974 285.88519287 295.1584053 C285.90068094 298.83675181 285.89131237 302.51425224 285.87593079 306.19258118 C285.88621791 307.2480533 285.89650504 308.30352543 285.9071039 309.39098155 C285.79593443 321.47830477 281.91197014 332.44556566 273.49864197 341.24290466 C264.13594395 349.90798988 254.29157817 352.58311175 241.78778076 352.53485107 C240.73262652 352.53867662 239.67747227 352.54250217 238.59034365 352.54644364 C235.06078344 352.55674805 231.53138667 352.55278626 228.0018158 352.54881287 C225.46856028 352.55316083 222.93530608 352.55834426 220.40205383 352.56430054 C214.23805336 352.57630381 208.07411295 352.57884266 201.91010306 352.57650027 C196.89654254 352.57471503 191.88299521 352.57647118 186.86943626 352.58072472 C186.15503081 352.58131991 185.44062535 352.58191509 184.70457124 352.58252832 C183.25306775 352.58374012 181.80156427 352.58495425 180.35006078 352.5861707 C166.74342415 352.59704213 153.13681231 352.59488603 139.53017428 352.58878585 C127.10033112 352.58362095 114.67056643 352.59486155 102.24073879 352.61388407 C89.46227159 352.63328934 76.68384146 352.64151351 63.90535945 352.63776082 C56.73754748 352.63585235 49.56980224 352.63830138 42.40200233 352.65247536 C35.65749936 352.6656777 28.9131782 352.66309262 22.16866684 352.65006447 C19.69842539 352.64770277 17.22817285 352.65041871 14.75794411 352.65868759 C11.37513144 352.66919131 7.9928408 352.6610248 4.61004639 352.64837646 C3.64201971 352.65575075 2.67399304 352.66312503 1.67663223 352.67072278 C-10.58194288 352.57488385 -21.55834028 349.52783383 -30.84120178 341.30540466 C-39.12392756 332.75948947 -42.76797378 322.19436799 -42.71620178 310.44212341 C-42.71297913 309.14983826 -42.70975647 307.8575531 -42.70643616 306.52610779 C-42.69808218 305.1712894 -42.68961725 303.81647169 -42.68104553 302.46165466 C-42.67602553 301.08730732 -42.6714635 299.71295822 -42.66737366 298.33860779 C-42.65560221 294.98374543 -42.63915836 291.62897245 -42.61854553 288.27415466 C-41.31707581 288.25957214 -40.01560608 288.24498962 -38.67469788 288.22996521 C-33.83262561 288.17186532 -28.99101268 288.09463275 -24.14930725 288.01170349 C-22.05628429 287.97850918 -19.96317301 287.95046021 -17.87001038 287.92771912 C-14.85611942 287.89407235 -11.8430339 287.84175073 -8.82948303 287.78587341 C-7.43226517 287.77628853 -7.43226517 287.77628853 -6.00682068 287.76651001 C-0.81362592 287.64975861 2.89967787 287.18560685 7.38145447 284.27415466 C11.82727368 279.34770634 12.73232429 276.32276687 12.66661072 269.81712341 C12.14572191 265.17193694 9.72256234 262.452704 6.31895447 259.46165466 C3.20143194 257.55091505 0.57588788 257.14051866 -2.9981842 257.0688324 C-3.8788707 257.04888718 -4.75955719 257.02894196 -5.66693115 257.00839233 C-6.61389359 256.99167984 -7.56085602 256.97496735 -8.53651428 256.95774841 C-9.50889542 256.93696732 -10.48127655 256.91618622 -11.48312378 256.89477539 C-14.59069218 256.82936718 -17.69834538 256.77043537 -20.80604553 256.71165466 C-22.91217411 256.66846115 -25.0182941 256.62484659 -27.12440491 256.58079529 C-32.28903278 256.472902 -37.45372461 256.37376344 -42.61854553 256.27415466 C-42.61854553 245.71415466 -42.61854553 235.15415466 -42.61854553 224.27415466 C-37.95858459 224.21808044 -37.95858459 224.21808044 -33.20448303 224.16087341 C-30.18602067 224.11462372 -27.16768062 224.06340252 -24.14930725 224.01170349 C-22.05628429 223.97850918 -19.96317301 223.95046021 -17.87001038 223.92771912 C-14.85611942 223.89407235 -11.8430339 223.84175073 -8.82948303 223.78587341 C-7.43226517 223.77628853 -7.43226517 223.77628853 -6.00682068 223.76651001 C-0.81362592 223.64975861 2.89967787 223.18560685 7.38145447 220.27415466 C11.82727368 215.34770634 12.73232429 212.32276687 12.66661072 205.81712341 C12.14572191 201.17193694 9.72256234 198.452704 6.31895447 195.46165466 C3.20143194 193.55091505 0.57588788 193.14051866 -2.9981842 193.0688324 C-3.8788707 193.04888718 -4.75955719 193.02894196 -5.66693115 193.00839233 C-6.61389359 192.99167984 -7.56085602 192.97496735 -8.53651428 192.95774841 C-9.50889542 192.93696732 -10.48127655 192.91618622 -11.48312378 192.89477539 C-14.59069218 192.82936718 -17.69834538 192.77043537 -20.80604553 192.71165466 C-22.91217411 192.66846115 -25.0182941 192.62484659 -27.12440491 192.58079529 C-32.28903278 192.472902 -37.45372461 192.37376344 -42.61854553 192.27415466 C-42.61854553 181.71415466 -42.61854553 171.15415466 -42.61854553 160.27415466 C-37.95858459 160.21808044 -37.95858459 160.21808044 -33.20448303 160.16087341 C-30.18602067 160.11462372 -27.16768062 160.06340252 -24.14930725 160.01170349 C-22.05628429 159.97850918 -19.96317301 159.95046021 -17.87001038 159.92771912 C-14.85611942 159.89407235 -11.8430339 159.84175073 -8.82948303 159.78587341 C-7.43226517 159.77628853 -7.43226517 159.77628853 -6.00682068 159.76651001 C-0.81362592 159.64975861 2.89967787 159.18560685 7.38145447 156.27415466 C11.82727368 151.34770634 12.73232429 148.32276687 12.66661072 141.81712341 C12.14572191 137.17193694 9.72256234 134.452704 6.31895447 131.46165466 C3.20143194 129.55091505 0.57588788 129.14051866 -2.9981842 129.0688324 C-3.8788707 129.04888718 -4.75955719 129.02894196 -5.66693115 129.00839233 C-6.61389359 128.99167984 -7.56085602 128.97496735 -8.53651428 128.95774841 C-9.50889542 128.93696732 -10.48127655 128.91618622 -11.48312378 128.89477539 C-14.59069218 128.82936718 -17.69834538 128.77043537 -20.80604553 128.71165466 C-22.91217411 128.66846115 -25.0182941 128.62484659 -27.12440491 128.58079529 C-32.28903278 128.472902 -37.45372461 128.37376344 -42.61854553 128.27415466 C-42.61854553 117.71415466 -42.61854553 107.15415466 -42.61854553 96.27415466 C-37.95858459 96.21808044 -37.95858459 96.21808044 -33.20448303 96.16087341 C-30.18602067 96.11462372 -27.16768062 96.06340252 -24.14930725 96.01170349 C-22.05628429 95.97850918 -19.96317301 95.95046021 -17.87001038 95.92771912 C-14.85611942 95.89407235 -11.8430339 95.84175073 -8.82948303 95.78587341 C-7.89800446 95.77948349 -6.96652588 95.77309357 -6.00682068 95.76651001 C-0.81362592 95.64975861 2.89967787 95.18560685 7.38145447 92.27415466 C11.82727368 87.34770634 12.73232429 84.32276687 12.66661072 77.81712341 C12.14572191 73.17193694 9.72256234 70.452704 6.31895447 67.46165466 C3.20143194 65.55091505 0.57588788 65.14051866 -2.9981842 65.0688324 C-3.8788707 65.04888718 -4.75955719 65.02894196 -5.66693115 65.00839233 C-6.61389359 64.99167984 -7.56085602 64.97496735 -8.53651428 64.95774841 C-9.50889542 64.93696732 -10.48127655 64.91618622 -11.48312378 64.89477539 C-14.59069218 64.82936718 -17.69834538 64.77043537 -20.80604553 64.71165466 C-22.91217411 64.66846115 -25.0182941 64.62484659 -27.12440491 64.58079529 C-32.28903144 64.47369468 -37.45374331 64.37240248 -42.61854553 64.27415466 C-42.74382804 59.93668152 -42.83365778 55.60021608 -42.89320374 51.26145935 C-42.91807138 49.79122026 -42.95197915 48.32110109 -42.9957428 46.8513031 C-43.38224593 33.51921843 -40.86914046 22.38632461 -31.61854553 12.27415466 C-27.20186001 7.79496887 -22.43275189 4.66504326 -16.61854553 2.27415466 C-15.39740224 1.76104941 -15.39740224 1.76104941 -14.15158939 1.23757839 C-9.38658056 -0.06178917 -4.91755931 -0.01191236 0 0 Z " fill="#F3F3F3" transform="translate(146.61854553222656,79.72584533691406)"/>
<path d="M0 0 C1.49500031 -0.01073296 1.49500031 -0.01073296 3.02020264 -0.02168274 C4.1075621 -0.02437164 5.19492157 -0.02706055 6.31523132 -0.02983093 C7.46524628 -0.03640213 8.61526123 -0.04297333 9.80012512 -0.04974365 C13.6081397 -0.06946452 17.41611489 -0.08113559 21.22416687 -0.09111023 C23.17487123 -0.09722352 23.17487123 -0.09722352 25.16498375 -0.10346031 C31.33674952 -0.12216482 37.50849557 -0.13673301 43.68028384 -0.14507228 C50.79362782 -0.15484387 57.90666056 -0.18116677 65.0198949 -0.22157317 C70.5257745 -0.25177118 76.03156505 -0.26654457 81.53752583 -0.26985329 C84.8225843 -0.27219934 88.1072344 -0.2830866 91.39222145 -0.30631447 C95.05951922 -0.3306373 98.72600274 -0.329753 102.39335632 -0.32279968 C103.4746431 -0.33560974 104.55592987 -0.3484198 105.66998291 -0.36161804 C112.02984724 -0.31768154 115.87163902 0.36959192 121.04838562 4.14717102 C124.41440329 7.77892692 125.87364593 10.36482616 126.36088562 15.33467102 C125.87313865 21.28518407 123.80886356 25.47257005 119.48588562 29.58467102 C115.96333155 31.8427185 113.3086321 32.27355343 109.21702576 32.28761292 C108.22173355 32.29332306 107.22644135 32.2990332 106.20098877 32.30491638 C104.56455666 32.30659317 104.56455666 32.30659317 102.89506531 32.30830383 C101.17026192 32.31575119 101.17026192 32.31575119 99.41061401 32.323349 C95.59715685 32.33798348 91.78374129 32.34477507 87.97026062 32.35029602 C85.32330829 32.35604676 82.67635598 32.3618045 80.02940369 32.36756897 C75.18471432 32.37714034 70.34003395 32.38303699 65.49533629 32.38606572 C58.37354894 32.39054283 51.25195385 32.40807509 44.13022494 32.43706632 C38.62011791 32.45871521 33.11006484 32.46877175 27.59991574 32.47010684 C24.31156316 32.47115281 21.02343206 32.47847045 17.73511505 32.49492645 C14.06302353 32.51198995 10.3913992 32.5101055 6.71928406 32.50361633 C5.63642624 32.51283112 4.55356842 32.5220459 3.43789673 32.53153992 C-3.10208467 32.49535555 -8.57460507 32.12287653 -13.69380188 27.61201477 C-17.93155497 21.89835457 -18.73627651 18.23092638 -17.95161438 11.14717102 C-15.74625969 6.73646164 -13.02930703 3.89961356 -8.95161438 1.14717102 C-5.93217003 0.17227876 -3.16168714 0.01562432 0 0 Z " fill="#C7C7C7" transform="translate(225.9516143798828,303.8528289794922)"/>
<path d="M0 0 C1.49500031 -0.01073296 1.49500031 -0.01073296 3.02020264 -0.02168274 C4.1075621 -0.02437164 5.19492157 -0.02706055 6.31523132 -0.02983093 C7.46524628 -0.03640213 8.61526123 -0.04297333 9.80012512 -0.04974365 C13.6081397 -0.06946452 17.41611489 -0.08113559 21.22416687 -0.09111023 C23.17487123 -0.09722352 23.17487123 -0.09722352 25.16498375 -0.10346031 C31.33674952 -0.12216482 37.50849557 -0.13673301 43.68028384 -0.14507228 C50.79362782 -0.15484387 57.90666056 -0.18116677 65.0198949 -0.22157317 C70.5257745 -0.25177118 76.03156505 -0.26654457 81.53752583 -0.26985329 C84.8225843 -0.27219934 88.1072344 -0.2830866 91.39222145 -0.30631447 C95.05951922 -0.3306373 98.72600274 -0.329753 102.39335632 -0.32279968 C103.4746431 -0.33560974 104.55592987 -0.3484198 105.66998291 -0.36161804 C112.02984724 -0.31768154 115.87163902 0.36959192 121.04838562 4.14717102 C124.41440329 7.77892692 125.87364593 10.36482616 126.36088562 15.33467102 C125.87313865 21.28518407 123.80886356 25.47257005 119.48588562 29.58467102 C115.96333155 31.8427185 113.3086321 32.27355343 109.21702576 32.28761292 C108.22173355 32.29332306 107.22644135 32.2990332 106.20098877 32.30491638 C104.56455666 32.30659317 104.56455666 32.30659317 102.89506531 32.30830383 C101.17026192 32.31575119 101.17026192 32.31575119 99.41061401 32.323349 C95.59715685 32.33798348 91.78374129 32.34477507 87.97026062 32.35029602 C85.32330829 32.35604676 82.67635598 32.3618045 80.02940369 32.36756897 C75.18471432 32.37714034 70.34003395 32.38303699 65.49533629 32.38606572 C58.37354894 32.39054283 51.25195385 32.40807509 44.13022494 32.43706632 C38.62011791 32.45871521 33.11006484 32.46877175 27.59991574 32.47010684 C24.31156316 32.47115281 21.02343206 32.47847045 17.73511505 32.49492645 C14.06302353 32.51198995 10.3913992 32.5101055 6.71928406 32.50361633 C5.63642624 32.51283112 4.55356842 32.5220459 3.43789673 32.53153992 C-3.10208467 32.49535555 -8.57460507 32.12287653 -13.69380188 27.61201477 C-17.93155497 21.89835457 -18.73627651 18.23092638 -17.95161438 11.14717102 C-15.74625969 6.73646164 -13.02930703 3.89961356 -8.95161438 1.14717102 C-5.93217003 0.17227876 -3.16168714 0.01562432 0 0 Z " fill="#C7C7C7" transform="translate(225.9516143798828,239.8528289794922)"/>
<path d="M0 0 C1.49500031 -0.01073296 1.49500031 -0.01073296 3.02020264 -0.02168274 C4.1075621 -0.02437164 5.19492157 -0.02706055 6.31523132 -0.02983093 C7.46524628 -0.03640213 8.61526123 -0.04297333 9.80012512 -0.04974365 C13.6081397 -0.06946452 17.41611489 -0.08113559 21.22416687 -0.09111023 C23.17487123 -0.09722352 23.17487123 -0.09722352 25.16498375 -0.10346031 C31.33674952 -0.12216482 37.50849557 -0.13673301 43.68028384 -0.14507228 C50.79362782 -0.15484387 57.90666056 -0.18116677 65.0198949 -0.22157317 C70.5257745 -0.25177118 76.03156505 -0.26654457 81.53752583 -0.26985329 C84.8225843 -0.27219934 88.1072344 -0.2830866 91.39222145 -0.30631447 C95.05951922 -0.3306373 98.72600274 -0.329753 102.39335632 -0.32279968 C103.4746431 -0.33560974 104.55592987 -0.3484198 105.66998291 -0.36161804 C112.02984724 -0.31768154 115.87163902 0.36959192 121.04838562 4.14717102 C124.41440329 7.77892692 125.87364593 10.36482616 126.36088562 15.33467102 C125.87313865 21.28518407 123.80886356 25.47257005 119.48588562 29.58467102 C115.96333155 31.8427185 113.3086321 32.27355343 109.21702576 32.28761292 C108.22173355 32.29332306 107.22644135 32.2990332 106.20098877 32.30491638 C104.56455666 32.30659317 104.56455666 32.30659317 102.89506531 32.30830383 C101.17026192 32.31575119 101.17026192 32.31575119 99.41061401 32.323349 C95.59715685 32.33798348 91.78374129 32.34477507 87.97026062 32.35029602 C85.32330829 32.35604676 82.67635598 32.3618045 80.02940369 32.36756897 C75.18471432 32.37714034 70.34003395 32.38303699 65.49533629 32.38606572 C58.37354894 32.39054283 51.25195385 32.40807509 44.13022494 32.43706632 C38.62011791 32.45871521 33.11006484 32.46877175 27.59991574 32.47010684 C24.31156316 32.47115281 21.02343206 32.47847045 17.73511505 32.49492645 C14.06302353 32.51198995 10.3913992 32.5101055 6.71928406 32.50361633 C5.63642624 32.51283112 4.55356842 32.5220459 3.43789673 32.53153992 C-3.10208467 32.49535555 -8.57460507 32.12287653 -13.69380188 27.61201477 C-17.93155497 21.89835457 -18.73627651 18.23092638 -17.95161438 11.14717102 C-15.74625969 6.73646164 -13.02930703 3.89961356 -8.95161438 1.14717102 C-5.93217003 0.17227876 -3.16168714 0.01562432 0 0 Z " fill="#C7C7C7" transform="translate(225.9516143798828,175.8528289794922)"/>
<path d="M0 0 C1.08147308 -0.00960754 2.16294617 -0.01921509 3.27719116 -0.02911377 C5.02257675 -0.03548859 5.02257675 -0.03548859 6.80322266 -0.04199219 C8.0041153 -0.04769226 9.20500793 -0.05339233 10.44229126 -0.05926514 C12.98251465 -0.0687095 15.52275026 -0.07524688 18.06298828 -0.07910156 C21.94536719 -0.08881237 25.82721786 -0.11984418 29.70947266 -0.15136719 C32.17821951 -0.15789694 34.64697016 -0.16314752 37.11572266 -0.16699219 C38.85503555 -0.18551239 38.85503555 -0.18551239 40.62948608 -0.20440674 C47.17049156 -0.18636058 52.21876242 0.01197739 57.23681641 4.69628906 C61.58989527 10.38877681 62.38182316 14.03335916 61.59228516 21.16113281 C59.37986076 25.5859816 56.644289 28.35589938 52.59228516 31.16113281 C49.56090885 32.17159158 47.48615819 32.29944893 44.31396484 32.32226562 C42.69648346 32.33667694 42.69648346 32.33667694 41.04632568 32.35137939 C39.88071106 32.35562927 38.71509644 32.35987915 37.51416016 32.36425781 C35.71425629 32.37280792 35.71425629 32.37280792 33.87799072 32.38153076 C31.33598717 32.39098427 28.79397134 32.39751613 26.25195312 32.40136719 C22.37168846 32.41105937 18.49195642 32.44207493 14.61181641 32.47363281 C12.14176747 32.48016426 9.67171474 32.48541417 7.20166016 32.48925781 C6.04414246 32.50160461 4.88662476 32.51395142 3.69403076 32.52667236 C-3.12967606 32.50790065 -8.76172203 32.30028357 -14.14990234 27.66113281 C-17.91626137 22.67395396 -18.82369657 19.4008587 -18.40771484 13.16113281 C-16.58898015 7.30076548 -14.31592404 4.56682899 -9.40771484 1.16113281 C-6.25983299 0.10345944 -3.30628501 0.02376126 0 0 Z " fill="#E6B10F" transform="translate(98.40771484375,335.8388671875)"/>
<path d="M0 0 C1.08147308 -0.00960754 2.16294617 -0.01921509 3.27719116 -0.02911377 C5.02257675 -0.03548859 5.02257675 -0.03548859 6.80322266 -0.04199219 C8.0041153 -0.04769226 9.20500793 -0.05339233 10.44229126 -0.05926514 C12.98251465 -0.0687095 15.52275026 -0.07524688 18.06298828 -0.07910156 C21.94536719 -0.08881237 25.82721786 -0.11984418 29.70947266 -0.15136719 C32.17821951 -0.15789694 34.64697016 -0.16314752 37.11572266 -0.16699219 C38.85503555 -0.18551239 38.85503555 -0.18551239 40.62948608 -0.20440674 C47.17049156 -0.18636058 52.21876242 0.01197739 57.23681641 4.69628906 C61.58989527 10.38877681 62.38182316 14.03335916 61.59228516 21.16113281 C59.37986076 25.5859816 56.644289 28.35589938 52.59228516 31.16113281 C49.56090885 32.17159158 47.48615819 32.29944893 44.31396484 32.32226562 C42.69648346 32.33667694 42.69648346 32.33667694 41.04632568 32.35137939 C39.88071106 32.35562927 38.71509644 32.35987915 37.51416016 32.36425781 C35.71425629 32.37280792 35.71425629 32.37280792 33.87799072 32.38153076 C31.33598717 32.39098427 28.79397134 32.39751613 26.25195312 32.40136719 C22.37168846 32.41105937 18.49195642 32.44207493 14.61181641 32.47363281 C12.14176747 32.48016426 9.67171474 32.48541417 7.20166016 32.48925781 C6.04414246 32.50160461 4.88662476 32.51395142 3.69403076 32.52667236 C-3.12967606 32.50790065 -8.76172203 32.30028357 -14.14990234 27.66113281 C-17.91626137 22.67395396 -18.82369657 19.4008587 -18.40771484 13.16113281 C-16.58898015 7.30076548 -14.31592404 4.56682899 -9.40771484 1.16113281 C-6.25983299 0.10345944 -3.30628501 0.02376126 0 0 Z " fill="#E6B10F" transform="translate(98.40771484375,271.8388671875)"/>
<path d="M0 0 C1.08147308 -0.00960754 2.16294617 -0.01921509 3.27719116 -0.02911377 C5.02257675 -0.03548859 5.02257675 -0.03548859 6.80322266 -0.04199219 C8.0041153 -0.04769226 9.20500793 -0.05339233 10.44229126 -0.05926514 C12.98251465 -0.0687095 15.52275026 -0.07524688 18.06298828 -0.07910156 C21.94536719 -0.08881237 25.82721786 -0.11984418 29.70947266 -0.15136719 C32.17821951 -0.15789694 34.64697016 -0.16314752 37.11572266 -0.16699219 C38.85503555 -0.18551239 38.85503555 -0.18551239 40.62948608 -0.20440674 C47.17049156 -0.18636058 52.21876242 0.01197739 57.23681641 4.69628906 C61.58989527 10.38877681 62.38182316 14.03335916 61.59228516 21.16113281 C59.37986076 25.5859816 56.644289 28.35589938 52.59228516 31.16113281 C49.56090885 32.17159158 47.48615819 32.29944893 44.31396484 32.32226562 C42.69648346 32.33667694 42.69648346 32.33667694 41.04632568 32.35137939 C39.88071106 32.35562927 38.71509644 32.35987915 37.51416016 32.36425781 C35.71425629 32.37280792 35.71425629 32.37280792 33.87799072 32.38153076 C31.33598717 32.39098427 28.79397134 32.39751613 26.25195312 32.40136719 C22.37168846 32.41105937 18.49195642 32.44207493 14.61181641 32.47363281 C12.14176747 32.48016426 9.67171474 32.48541417 7.20166016 32.48925781 C6.04414246 32.50160461 4.88662476 32.51395142 3.69403076 32.52667236 C-3.12967606 32.50790065 -8.76172203 32.30028357 -14.14990234 27.66113281 C-17.91626137 22.67395396 -18.82369657 19.4008587 -18.40771484 13.16113281 C-16.58898015 7.30076548 -14.31592404 4.56682899 -9.40771484 1.16113281 C-6.25983299 0.10345944 -3.30628501 0.02376126 0 0 Z " fill="#E6B10F" transform="translate(98.40771484375,207.8388671875)"/>
<path d="M0 0 C1.08147308 -0.00960754 2.16294617 -0.01921509 3.27719116 -0.02911377 C5.02257675 -0.03548859 5.02257675 -0.03548859 6.80322266 -0.04199219 C8.0041153 -0.04769226 9.20500793 -0.05339233 10.44229126 -0.05926514 C12.98251465 -0.0687095 15.52275026 -0.07524688 18.06298828 -0.07910156 C21.94536719 -0.08881237 25.82721786 -0.11984418 29.70947266 -0.15136719 C32.17821951 -0.15789694 34.64697016 -0.16314752 37.11572266 -0.16699219 C38.85503555 -0.18551239 38.85503555 -0.18551239 40.62948608 -0.20440674 C47.17049156 -0.18636058 52.21876242 0.01197739 57.23681641 4.69628906 C61.58989527 10.38877681 62.38182316 14.03335916 61.59228516 21.16113281 C59.37986076 25.5859816 56.644289 28.35589938 52.59228516 31.16113281 C49.56090885 32.17159158 47.48615819 32.29944893 44.31396484 32.32226562 C42.69648346 32.33667694 42.69648346 32.33667694 41.04632568 32.35137939 C39.88071106 32.35562927 38.71509644 32.35987915 37.51416016 32.36425781 C35.71425629 32.37280792 35.71425629 32.37280792 33.87799072 32.38153076 C31.33598717 32.39098427 28.79397134 32.39751613 26.25195312 32.40136719 C22.37168846 32.41105937 18.49195642 32.44207493 14.61181641 32.47363281 C12.14176747 32.48016426 9.67171474 32.48541417 7.20166016 32.48925781 C6.04414246 32.50160461 4.88662476 32.51395142 3.69403076 32.52667236 C-3.12967606 32.50790065 -8.76172203 32.30028357 -14.14990234 27.66113281 C-17.91626137 22.67395396 -18.82369657 19.4008587 -18.40771484 13.16113281 C-16.58898015 7.30076548 -14.31592404 4.56682899 -9.40771484 1.16113281 C-6.25983299 0.10345944 -3.30628501 0.02376126 0 0 Z " fill="#E6B10F" transform="translate(98.40771484375,143.8388671875)"/>
</svg>
